<svg xmlns="http://www.w3.org/2000/svg" version="1.1" xmlns:xlink="http://www.w3.org/1999/xlink" xmlns:svgjs="http://svgjs.dev/svgjs" width="100%" height="100%" viewBox="0 0 1000 600"><rect width="1000" height="600" x="0" y="0" fill="#ffffff"/><g><rect width="333.3333333333333" height="333.3333333333333" rx="13.333333333333334" ry="13.333333333333334" y="282.3631878166981" fill="#ec8b5e" transform="matrix(0.48050877620655685,0,0,0.48050877620655674,0,84.23722695678514)" x="260.1409301757813"/><path d="M437.7293140759956 374.02986825743517L495.9048185660917 524.0298668124741L476.58663693400337 524.0298668124741L460.6775461781659 482.4263318597087L392.7166882469793 482.4263318597087L376.80759749114185 524.0298668124741L357.71037545288453 524.0298668124741L416.1384051930733 374.02986825743517L437.7293140759956 374.02986825743517ZM426.5866374156571 391.5172418263518L399.31391040565 465.38087747845424L454.0803240194952 465.38087747845424L426.5866374156571 391.5172418263518Z " fill="#141a46" transform="matrix(0.48050877620655685,0,0,0.48050877620655674,0,84.23722695678514)"/><path d="M785.3247474639998 477.9207933607785L802.9718052425574 484.5384400277376Q798.3455800263037 496.8852530221103 789.7365119086392 505.8313309237402Q781.1274437909749 514.7774088253701 769.5465621237964 519.403634041624Q757.965680456618 524.0298592578778 744.3014655794709 524.0298592578778L744.3014655794709 524.0298592578778Q723.5600452390482 524.0298592578778 708.4558794667757 514.8693205846334Q693.3517136945034 505.7087819113891 685.0796553608044 488.9502044723769Q676.8075970271055 472.1916270333648 676.8075970271055 449.0298636990079L676.8075970271055 449.0298636990079Q676.8075970271055 425.868100364651 685.0796553608044 409.1095229256389Q693.3517136945034 392.35094548662664 708.4558794667757 383.19040681338237Q723.5600452390482 374.02986814013803 743.8419067831543 374.02986814013803L743.8419067831543 374.02986814013803Q757.965680456618 374.02986814013803 768.9950915682165 377.89016202919754Q780.024502679815 381.750455918257 787.867639470285 389.34849468402484Q795.6801390076673 396.97717070288047 800.3370014770089 408.006581814479L800.3370014770089 408.006581814479L782.9044044700656 416.1560911358268Q778.0330812291097 403.5948173698396 768.9031798089532 397.0690824621438Q759.7426411357088 390.5739848075358 745.1899459190164 390.5739848075358L745.1899459190164 390.5739848075358Q730.3921526776218 390.5739848075358 719.1482807944088 397.5286412584604Q707.9044089111959 404.48329770938506 701.6237720282022 417.47349301860106Q695.3124978921209 430.49432558090484 695.3124978921209 449.0298636990079L695.3124978921209 449.0298636990079Q695.3124978921209 467.35094104549654 701.2867622442367 480.46368536706365Q707.2303893432648 493.5764296886308 718.2598004548632 500.5310861395554Q729.2892115664619 507.48574259048 744.3014655794709 507.48574259048L744.3014655794709 507.48574259048Q758.8541607961635 507.48574259048 769.6691111361475 500.10216459632653Q780.4840614761315 492.7185866021731 785.3247474639998 477.9207933607785L785.3247474639998 477.9207933607785ZM879.2892026842017 409.32398369725325L879.2892026842017 409.32398369725325Q894.944839012054 409.32398369725325 906.9852794755489 416.1560911358268Q918.9950826859563 422.9881985744003 925.8271901245298 435.91711937744077Q932.689934816191 448.8154029273935 932.689934816191 466.67692147756554L932.689934816191 466.67692147756554Q932.689934816191 484.5384400277376 925.8271901245298 497.43672357769026Q918.9950826859563 510.3656443807307 906.9852794755489 517.1977518193042Q894.944839012054 524.0298592578778 879.2892026842017 524.0298592578778L879.2892026842017 524.0298592578778Q863.8480271279636 524.0298592578778 851.7156749052053 517.1977518193042Q839.583322682447 510.3656443807307 832.7512152438735 497.43672357769026Q825.9191078053 484.5384400277376 825.9191078053 466.67692147756554L825.9191078053 466.67692147756554Q825.9191078053 448.8154029273935 832.7512152438735 435.91711937744077Q839.583322682447 422.9881985744003 851.7156749052053 416.1560911358268Q863.8480271279636 409.32398369725325 879.2892026842017 409.32398369725325ZM879.2892026842017 424.5506984818768L879.2892026842017 424.5506984818768Q868.0453308009887 424.5506984818768 860.1102822512553 429.6058452413594Q852.1752337015218 434.6916292539298 847.8553810161459 444.0666286987886Q843.5661655838576 453.44162814364734 843.5661655838576 466.67692147756554L843.5661655838576 466.67692147756554Q843.5661655838576 479.6977540398693 847.8553810161459 489.1646652439914Q852.1752337015218 498.6622137012012 860.1102822512553 503.7479977137716Q868.0453308009887 508.8031444732543 879.2892026842017 508.8031444732543L879.2892026842017 508.8031444732543Q890.5330745674144 508.8031444732543 898.4987603702357 503.7479977137716Q906.4338089199689 498.6622137012012 910.7230243522574 489.1646652439914Q915.0428770376334 479.6977540398693 915.0428770376334 466.67692147756554L915.0428770376334 466.67692147756554Q915.0428770376334 453.44162814364734 910.7230243522574 444.0666286987886Q906.4338089199689 434.6916292539298 898.4987603702357 429.6058452413594Q890.5330745674144 424.5506984818768 879.2892026842017 424.5506984818768ZM983.6396867011586 521.8239770355581L965.9926289226009 521.8239770355581L965.9926289226009 411.52986591957296L981.433804478839 411.52986591957296L982.5367455899986 428.74800215490177Q988.4803726890268 418.5764341297609 998.0698329054999 413.9502089135071Q1007.6899303750608 409.32398369725325 1017.8308611471139 409.32398369725325L1017.8308611471139 409.32398369725325Q1029.5036545735557 409.32398369725325 1039.889683370311 414.6242284814381Q1050.2450749139784 419.92447326562296 1055.7597804697775 430.95388437722147L1055.7597804697775 430.95388437722147Q1059.2830645748718 423.4477573707169 1065.6862504702162 418.698983142112Q1072.0894363655607 413.9502089135071 1079.687475131329 411.65241493192406Q1087.3161511501844 409.32398369725325 1094.148258588758 409.32398369725325L1094.148258588758 409.32398369725325Q1104.748748157128 409.32398369725325 1114.338208373601 413.73574814189266Q1123.927668590074 418.14751258653206 1130.1163937138044 427.3999630190397Q1136.2744815844467 436.68305070463515 1136.2744815844467 451.23574592132763L1136.2744815844467 451.23574592132763L1136.2744815844467 521.8239770355581L1118.627423805889 521.8239770355581L1118.627423805889 453.0127066004185Q1118.627423805889 438.00045258740937 1111.1212967993847 431.38280592045027Q1103.645807045968 424.76515925349116 1092.6163959343694 424.76515925349116L1092.6163959343694 424.76515925349116Q1084.0073278167051 424.76515925349116 1076.5012008102003 428.9624629265162Q1068.995073803696 433.1597665995412 1064.491397599793 441.3092759208889Q1059.9570841428026 449.45878524223673 1059.9570841428026 461.37667669338066L1059.9570841428026 461.37667669338066L1059.9570841428026 521.8239770355581L1042.310026364245 521.8239770355581L1042.310026364245 453.0127066004185Q1042.310026364245 438.00045258740937 1034.8038993577402 431.38280592045027Q1027.2977723512358 424.76515925349116 1016.2683612396374 424.76515925349116L1016.2683612396374 424.76515925349116Q1009.0073322578351 424.76515925349116 1001.3786562389796 428.62545314255067Q993.7806174732116 432.4857470316101 988.6948334606413 440.8803543776601Q983.6396867011586 449.2443244706223 983.6396867011586 462.93917660085714L983.6396867011586 462.93917660085714L983.6396867011586 521.8239770355581ZM1193.8418801363732 521.8239770355581L1176.1948223578156 521.8239770355581L1176.1948223578156 411.52986591957296L1191.6359979140539 411.52986591957296L1192.7389390252133 428.74800215490177Q1198.7132033773296 418.5764341297609 1208.3026635938027 413.9502089135071Q1217.8921238102757 409.32398369725325 1228.0330545823285 409.32398369725325L1228.0330545823285 409.32398369725325Q1239.7364852618584 409.32398369725325 1250.0918768055258 414.6242284814381Q1260.4779056022812 419.92447326562296 1265.9926111580803 430.95388437722147L1265.9926111580803 430.95388437722147Q1269.5158952631741 423.4477573707169 1275.919081158519 418.698983142112Q1282.3222670538635 413.9502089135071 1289.9203058196317 411.65241493192406Q1297.5183445853995 409.32398369725325 1304.3810892770607 409.32398369725325L1304.3810892770607 409.32398369725325Q1314.9509415923426 409.32398369725325 1324.5404018088157 413.73574814189266Q1334.1604992783768 418.14751258653206 1340.318587149019 427.3999630190397Q1346.5073122727495 436.68305070463515 1346.5073122727495 451.23574592132763L1346.5073122727495 451.23574592132763L1346.5073122727495 521.8239770355581L1328.8602544941918 521.8239770355581L1328.8602544941918 453.0127066004185Q1328.8602544941918 438.00045258740937 1321.354127487687 431.38280592045027Q1313.8480004811827 424.76515925349116 1302.818589369584 424.76515925349116L1302.818589369584 424.76515925349116Q1294.2095212519198 424.76515925349116 1286.734031498503 428.9624629265162Q1279.2279044919987 433.1597665995412 1274.693591035008 441.3092759208889Q1270.1899148311054 449.45878524223673 1270.1899148311054 461.37667669338066L1270.1899148311054 461.37667669338066L1270.1899148311054 521.8239770355581L1252.5428570525478 521.8239770355581L1252.5428570525478 453.0127066004185Q1252.5428570525478 438.00045258740937 1245.036730046043 431.38280592045027Q1237.5306030395386 424.76515925349116 1226.50119192794 424.76515925349116L1226.50119192794 424.76515925349116Q1219.2095256930497 424.76515925349116 1211.611486927282 428.62545314255067Q1204.0134481615141 432.4857470316101 1198.9276641489437 440.8803543776601Q1193.8418801363732 449.2443244706223 1193.8418801363732 462.93917660085714L1193.8418801363732 462.93917660085714L1193.8418801363732 521.8239770355581ZM1432.5367189432177 524.0298592578778L1432.5367189432177 524.0298592578778Q1416.8810826153654 524.0298592578778 1404.6261813802562 517.1977518193042Q1392.3712801451466 510.3656443807307 1385.539172706573 497.43672357769026Q1378.7070652679995 484.5384400277376 1378.7070652679995 466.67692147756554L1378.7070652679995 466.67692147756554Q1378.7070652679995 448.8154029273935 1385.539172706573 435.91711937744077Q1392.3712801451466 422.9881985744003 1404.2891715962905 416.1560911358268Q1416.2070630474345 409.32398369725325 1431.4337778320578 409.32398369725325L1431.4337778320578 409.32398369725325Q1446.874953388296 409.32398369725325 1457.781815487543 415.94163036421236Q1468.7193148398783 422.55927703117146 1474.4484811672924 433.9256979267355Q1480.177647494706 445.2921188222995 1480.177647494706 459.3852552426754L1480.177647494706 459.3852552426754Q1480.177647494706 463.15363737247156 1479.9631867230914 466.2479999343367Q1479.748725951477 469.31172524311404 1479.2891671551602 471.76270549013594L1479.2891671551602 471.76270549013594L1390.1653979228267 471.76270549013594L1390.1653979228267 456.07643190919583L1471.5685793770413 456.07643190919583L1462.5305897161484 457.85339258828674Q1462.5305897161484 441.98329548882 1453.8296098392207 433.3742273711556Q1445.0979927092048 424.76515925349116 1430.9742190357415 424.76515925349116L1430.9742190357415 424.76515925349116Q1420.189905948845 424.76515925349116 1412.346769158375 429.7283942537105Q1404.503632367905 434.6916292539298 1400.2144169356166 444.0666286987886Q1395.9252015033285 453.44162814364734 1395.9252015033285 466.67692147756554L1395.9252015033285 466.67692147756554Q1395.9252015033285 479.6977540398693 1400.3369659479677 489.1646652439914Q1404.7487303926073 498.6622137012012 1412.7756907016037 503.6254487014205Q1420.8332882636882 508.58868370163987 1432.0771601469014 508.58868370163987L1432.0771601469014 508.58868370163987Q1444.2095123696595 508.58868370163987 1451.838188388515 503.96245848538604Q1459.4362271542832 499.3362332691322 1464.062452370537 491.3705474663111L1464.062452370537 491.3705474663111L1477.9717652723857 499.55069404074663Q1473.774461599361 507.0568210472512 1467.2793639447532 512.5715266030504Q1460.7536290370572 518.0862321588497 1452.0526491601295 521.0580457083637Q1443.3516692832018 524.0298592578778 1432.5367189432177 524.0298592578778ZM1531.3418601512876 521.8239770355581L1513.69480237273 521.8239770355581L1513.69480237273 411.52986591957296L1528.0330368178084 411.52986591957296L1530.4840170648304 429.6058452413594Q1535.110242281084 419.46491446930634 1544.0256829296259 414.40976770982365Q1552.9717608312558 409.32398369725325 1565.7781326219456 409.32398369725325L1565.7781326219456 409.32398369725325Q1568.627397159108 409.32398369725325 1572.058769504939 409.7529052404821Q1575.4595045976816 410.2124640367987 1577.9104848447037 411.52986591957296L1577.9104848447037 411.52986591957296L1574.8161222828385 427.6450610437419Q1572.3957792889046 426.7565807041965 1569.5158774986535 426.29702190787987Q1566.6359757084028 425.868100364651 1561.366368177306 425.868100364651L1561.366368177306 425.868100364651Q1554.5036234856448 425.868100364651 1547.5796042878078 429.8509432660616Q1540.6249478368832 433.8031489143844 1535.998722620629 441.8607464764689Q1531.3418601512876 449.91834403855336 1531.3418601512876 462.26515703292614L1531.3418601512876 462.26515703292614L1531.3418601512876 521.8239770355581ZM1649.3565590453918 409.32398369725325L1649.3565590453918 409.32398369725325Q1660.8455289533067 409.32398369725325 1669.5465088302349 412.84726780234723Q1678.2781259602502 416.3705519074412 1684.650674602507 422.9881985744003Q1691.053860497852 429.6058452413594 1695.0367033992625 438.6744721553404L1695.0367033992625 438.6744721553404L1678.2781259602502 446.6095207050738Q1674.7242046020683 436.0090311367041 1667.5550873795291 430.4024138216415Q1660.3859701569904 424.76515925349116 1648.9276375021632 424.76515925349116L1648.9276375021632 424.76515925349116Q1637.8982263905646 424.76515925349116 1629.9631778408311 429.7283942537105Q1622.0281292910977 434.6916292539298 1617.8308256180726 444.0666286987886Q1613.633521945048 453.44162814364734 1613.633521945048 466.67692147756554L1613.633521945048 466.67692147756554Q1613.633521945048 479.6977540398693 1617.8308256180726 489.1646652439914Q1622.0281292910977 498.6622137012012 1629.9631778408311 503.6254487014205Q1637.8982263905646 508.58868370163987 1648.9276375021632 508.58868370163987L1648.9276375021632 508.58868370163987Q1657.5367056198274 508.58868370163987 1663.8173425028208 505.9538799360913Q1670.0979793858146 503.288438917455 1674.1727340464886 498.23329215797236Q1678.2781259602502 493.14750814540196 1679.8099886146388 485.8558419105118L1679.8099886146388 485.8558419105118L1696.139644510422 491.61564549101325Q1692.371262380626 501.75657626306634 1685.876164726018 509.0176052448687Q1679.3810670714101 516.3092714797588 1670.2205283981657 520.1695653688183Q1661.0599897249213 524.0298592578778 1649.3565590453918 524.0298592578778L1649.3565590453918 524.0298592578778Q1633.915383489154 524.0298592578778 1621.7830312663955 517.1977518193042Q1609.650679043637 510.3656443807307 1602.8185716050634 497.43672357769026Q1595.9864641664904 484.5384400277376 1595.9864641664904 466.67692147756554L1595.9864641664904 466.67692147756554Q1595.9864641664904 448.8154029273935 1602.8185716050634 435.91711937744077Q1609.650679043637 422.9881985744003 1621.7830312663955 416.1560911358268Q1633.915383489154 409.32398369725325 1649.3565590453918 409.32398369725325ZM1773.3455222916118 524.0298592578778L1773.3455222916118 524.0298592578778Q1757.689885963759 524.0298592578778 1745.4349847286499 517.1977518193042Q1733.1800834935402 510.3656443807307 1726.3479760549671 497.43672357769026Q1719.5158686163932 484.5384400277376 1719.5158686163932 466.67692147756554L1719.5158686163932 466.67692147756554Q1719.5158686163932 448.8154029273935 1726.3479760549671 435.91711937744077Q1733.1800834935402 422.9881985744003 1745.0979749446842 416.1560911358268Q1757.0158663958282 409.32398369725325 1772.242581180452 409.32398369725325L1772.242581180452 409.32398369725325Q1787.6837567366897 409.32398369725325 1798.5906188359372 415.94163036421236Q1809.5281181882724 422.55927703117146 1815.257284515686 433.9256979267355Q1820.9864508430996 445.2921188222995 1820.9864508430996 459.3852552426754L1820.9864508430996 459.3852552426754Q1820.9864508430996 463.15363737247156 1820.7719900714856 466.2479999343367Q1820.557529299871 469.31172524311404 1820.0979705035543 471.76270549013594L1820.0979705035543 471.76270549013594L1730.9742012712209 471.76270549013594L1730.9742012712209 456.07643190919583L1812.3773827254354 456.07643190919583L1803.339393064542 457.85339258828674Q1803.339393064542 441.98329548882 1794.6384131876143 433.3742273711556Q1785.906796057599 424.76515925349116 1771.7830223841352 424.76515925349116L1771.7830223841352 424.76515925349116Q1760.9987092972387 424.76515925349116 1753.1555725067687 429.7283942537105Q1745.3124357162988 434.6916292539298 1741.0232202840102 444.0666286987886Q1736.7340048517221 453.44162814364734 1736.7340048517221 466.67692147756554L1736.7340048517221 466.67692147756554Q1736.7340048517221 479.6977540398693 1741.1457692963613 489.1646652439914Q1745.557533741001 498.6622137012012 1753.5844940499978 503.6254487014205Q1761.642091612082 508.58868370163987 1772.885963495295 508.58868370163987L1772.885963495295 508.58868370163987Q1785.0183157180536 508.58868370163987 1792.646991736909 503.96245848538604Q1800.2450305026769 499.3362332691322 1804.8712557189306 491.3705474663111L1804.8712557189306 491.3705474663111L1818.7805686207798 499.55069404074663Q1814.5832649477547 507.0568210472512 1808.0881672931469 512.5715266030504Q1801.5624323854513 518.0862321588497 1792.8614525085236 521.0580457083637Q1784.160472631596 524.0298592578778 1773.3455222916118 524.0298592578778Z " fill="#ec8b5e" transform="matrix(0.48050877620655685,0,0,0.48050877620655674,0,84.23722695678514)"/></g></svg>